<svg id="Capa_1" enable-background="new 0 0 512.007 512.007" height="512" viewBox="0 0 512.007 512.007" width="512" xmlns="http://www.w3.org/2000/svg"><g><g><g><path d="m298.791 86.575c-28.594 38.94-40.034 80.9-36.171 118.809.761 7.463-4.234 14.156-9.539 19.461l-28.234 28.234c-5.305 5.305-12.718 7.878-20.181 7.117-37.909-3.864-82.788 9.705-121.728 38.299-6.138 4.507-12.02 9.254-17.6 14.195-58.532 51.83-65.337 134.547-22.124 155.759 47.029 23.085 131.005 56.868 196.342-8.468 3.576-3.576 7.803-6.361 10.966-10.04 43.086-50.113 48.195-108.76 24.077-147.988-4.802-7.81-3.523-17.912 2.96-24.395 6.483-6.483 16.4-10.166 24.21-5.364 42.108 25.888 106.099 19.924 158.384-32.362 3.245-3.245 6.954-5.966 9.788-9.313 54.228-64.062 34.933-145.486 7.815-187.24-35.174-54.156-95.734-41.376-145.06 2.062-12.284 10.817-23.58 27.173-33.905 41.234z" fill="#f7f3f1"/><g fill="#eae2df"><path d="m253.081 224.845 11.831-11.831c9.886-9.886 15.106-23.435 14.697-37.41-1.049-35.865 12.542-76.787 38.888-112.667 4.507-6.138 9.258-12.016 14.199-17.597-12.285 10.819-23.874 23.535-34.2 37.597-28.594 38.94-42.163 83.819-38.299 121.728.762 7.462-1.811 14.875-7.116 20.18z"/><path d="m338.049 262.453c-19.99-7.502-42.498-2.887-57.595 12.21l-2.894 2.894c10.934-9.364 21.228-4.908 24.395-2.96 42.108 25.888 106.592 18.101 158.878-34.184 3.246-3.246 6.275-6.546 9.11-9.895-43.647 37.524-93.77 46.244-131.894 31.935z"/><path d="m63.279 457.753c-54.156-35.173-41.372-95.732 2.065-145.057-58.532 51.83-83.821 124.948-22.065 165.057 43.936 28.535 131.799 48.412 197.136-16.925 3.577-3.577 6.939-7.213 10.103-10.893-64.063 54.226-145.485 34.936-187.239 7.818z"/></g></g><g><path d="m439.183 98.767c19.821 31.228 24.518 73.251-10.464 113.874-2.332 2.708-5.469 4.923-8.161 7.615-40.91 40.909-79.042 26.848-101.597 10.261-18.669-13.729-23.459-63.895 16.17-107.091 4.526-4.934 9.52-11.194 14.819-16.255.958-.914 2.831-2.753 2.831-2.753 27.15-25.066 61.699-44.571 86.402-5.651z" fill="#fa5e97"/><path d="m331.005 218.668c-25.476-25.476-20.563-68.125 19.066-111.321.887-.966 1.79-1.944 2.711-2.928-6.388 5.898-12.367 12.103-17.711 17.928-39.629 43.196-44.542 85.846-19.066 111.321 19.797 19.796 64.272 27.985 105.182-12.925 2.691-2.691 5.2-5.394 7.532-8.101-38.739 32.971-79.117 24.623-97.714 6.026z" fill="#d94f88"/></g><g><path d="m102.96 435.853c12.255 7.404 74.309 27.883 117.384-15.192 2.478-2.478 5.176-4.447 7.302-6.945 32.973-38.74 24.621-79.116 6.024-97.713-25.476-25.476-68.126-20.563-111.322 19.066-.966.887-1.943 1.791-2.927 2.711-30.162 28.208-51.887 76.67-16.461 98.073z" fill="#fa5e97"/><path d="m113.769 424.18c-38.921-24.704-19.415-59.251 5.652-86.401-30.162 28.209-67.211 71.849-20.652 101.401 33.31 21.142 78.902 25.078 121.977-17.996 2.479-2.479 4.775-4.97 6.901-7.468-40.625 34.984-82.65 30.285-113.878 10.464z" fill="#d94f88"/></g></g><g><path d="m484.045 39.194c-15.081-23.22-35.964-36.659-60.39-38.864-35.214-3.168-75.811 16.628-111.377 54.345-2.842 3.014-2.703 7.76.311 10.602 3.014 2.843 7.76 2.704 10.602-.311 31.912-33.84 68.962-52.407 99.116-49.696 19.957 1.802 36.497 12.601 49.158 32.095 23.398 36.026 50.179 121.628-15.938 187.745-53.517 53.518-113.719 55.187-149.645 33.099-10.784-6.631-24.611-4.968-33.627 4.047-9.013 9.014-10.676 22.841-4.045 33.626 22.087 35.925 20.418 96.128-33.099 149.645-56.754 56.753-125.771 41.671-152.81 32.556-3.923-1.325-8.179.785-9.503 4.71-1.323 3.925.786 8.18 4.71 9.503 61.7 20.959 125.268 7.596 168.209-36.161 25.854-25.855 42.617-55.999 48.475-87.173 5.519-29.366.829-58.109-13.204-80.935-2.979-4.846-2.209-11.082 1.873-15.164 4.083-4.084 10.319-4.854 15.165-1.875 22.824 14.033 51.566 18.722 80.935 13.205 31.174-5.858 61.317-22.62 87.173-48.475 30.445-30.446 46.304-69.165 45.86-111.974-.339-32.782-10.787-68.127-27.949-94.55z"/><path d="m87.378 304.539c36.513-26.81 80.079-40.589 116.529-36.882 9.791 1.006 19.353-2.384 26.244-9.275l28.233-28.233c6.893-6.892 10.273-16.458 9.275-26.245-3.618-35.497 8.807-76.551 34.091-112.635 2.377-3.393 1.554-8.069-1.839-10.446-3.392-2.375-8.07-1.555-10.446 1.839-27.319 38.99-40.707 83.736-36.728 122.764.539 5.281-1.269 10.427-4.959 14.116l-28.233 28.233c-3.69 3.69-8.837 5.487-14.117 4.961-40.649-4.147-86.911 10.331-126.927 39.714-49.587 36.411-79.652 84.781-78.463 126.233.547 28.199 17.189 53.051 44.339 68.571 1.199.709 2.514 1.046 3.812 1.046 2.564 0 5.062-1.315 6.462-3.682 2.109-3.564.93-8.165-2.635-10.274-21.688-12.014-37.002-33.225-36.984-56.092-1.034-36.047 27.364-80.681 72.346-113.713z"/><path d="m340.597 127.417c10.289-11.215 41.617-45.341 66.993-43.095 9.654.855 17.916 6.896 25.26 18.465 8.828 13.909 13.729 29.125 14.174 44.002.122 4.064 3.454 7.276 7.493 7.276.075 0 .151-.001.228-.003 4.141-.124 7.396-3.581 7.273-7.721-.525-17.569-6.232-35.41-16.504-51.594-9.873-15.555-22.188-24.09-36.6-25.367-29.379-2.609-59.364 26.088-79.37 47.896-20.108 21.917-32.498 44.816-35.832 66.222-3.393 21.783 2.482 40.966 16.989 55.474 34.999 31.001 80.719 21.412 115.788-12.926 13.306-13.307 23.024-27.583 28.886-42.432 1.521-3.854-.37-8.209-4.223-9.73-3.854-1.519-8.209.371-9.73 4.223-5.103 12.928-13.695 25.488-25.54 37.333-39.153 39.155-78.789 28.708-94.574 12.926-10.982-10.983-15.4-25.7-12.774-42.56 2.877-18.47 13.964-38.66 32.063-58.389z"/><path d="m94.751 445.512c43.682 27.938 93.565 19.485 131.298-19.024 25.046-25.047 30.911-49.484 31.42-65.574.609-19.252-6.305-38.023-18.495-50.215-11.016-11.016-25.181-17.188-40.964-17.849-15.677-.648-32.328 3.927-49.509 13.618-3.607 2.035-4.882 6.609-2.847 10.217s6.609 4.883 10.217 2.848c28.735-16.211 55.16-15.564 72.497 1.773 15.784 15.784 26.232 55.418-12.925 94.574-48.847 48.845-95.054 28.138-112.653 16.968-11.569-7.344-17.608-15.605-18.464-25.259-1.851-26.39 32.336-57.021 44.495-68.266 3.081-2.769 3.334-7.511.566-10.592-2.77-3.082-7.512-3.335-10.592-.566-21.816 19.752-52.053 50.897-49.411 80.748 1.276 14.413 9.811 26.726 25.367 36.599z"/></g></g></svg>